<svg width="100" height="100" viewBox="0 0 100 100" fill="none" xmlns="http://www.w3.org/2000/svg">
<rect width="100" height="100" fill="white"/>
<path fill-rule="evenodd" clip-rule="evenodd" d="M22.3794 75.198V38.7256C22.3794 23.4131 34.7925 11 50.105 11C65.4175 11 77.8306 23.4131 77.8306 38.7256C77.8306 53.8365 65.7417 66.124 50.7077 66.4447V66.4512C46.3801 66.4512 42.8722 62.9433 42.8722 58.6157C42.8722 54.3286 46.3153 50.8455 50.5872 50.7812V50.7708C57.0212 50.5176 62.1596 45.2216 62.1596 38.7256C62.1596 32.0681 56.7625 26.671 50.105 26.671C43.4475 26.671 38.0504 32.0681 38.0504 38.7256V79.1085C38.0504 83.4361 34.5425 86.944 30.2149 86.944C28.6029 86.9466 27.0298 86.4497 25.7118 85.5216C27.9655 84.8629 29.6122 82.7808 29.6122 80.314C29.6122 77.3182 27.1834 74.8894 24.1876 74.8894C23.5535 74.8894 22.945 74.9981 22.3794 75.198ZM50.7077 64.0403C53.7035 64.0403 56.1323 61.6115 56.1323 58.6157C56.1323 55.6199 53.7035 53.1911 50.7077 53.1911C47.7119 53.1911 45.2831 55.6199 45.2831 58.6157C45.2831 61.6115 47.7119 64.0403 50.7077 64.0403Z" fill="url(#paint0_linear_74_122)"/>
<defs>
<linearGradient id="paint0_linear_74_122" x1="50.105" y1="11" x2="50.105" y2="58.5546" gradientUnits="userSpaceOnUse">
<stop stop-color="#D378E5"/>
<stop offset="1" stop-color="#7526C2"/>
</linearGradient>
</defs>
</svg>
