<svg width="100" height="100" viewBox="0 0 100 100" fill="none" xmlns="http://www.w3.org/2000/svg">
<rect width="100" height="100" fill="#00005B"/>
<path d="M42.1046 62.7276H26.6085L23.4556 72.7923C23.3681 73.1655 23.0244 73.4298 22.6506 73.4116H14.8019C14.3543 73.4116 14.1977 73.1594 14.3323 72.6548L27.7488 33.1876C27.8831 32.7751 28.0172 32.3716 28.1515 31.8437C28.3269 30.9255 28.4168 29.9926 28.4198 29.0573C28.3814 28.7809 28.6199 28.536 28.8892 28.5755H39.5556C39.8681 28.5755 40.0467 28.6901 40.0921 28.9194L55.3203 72.7234C55.4542 73.1826 55.3199 73.4119 54.9178 73.4116H46.1967C45.891 73.4462 45.5989 73.2366 45.526 72.9298L42.1046 62.7276ZM29.0235 54.2416H39.6228C37.8814 48.2909 35.916 42.4187 34.3231 36.4216C32.5181 42.6423 30.8514 48.4116 29.0235 54.2416Z" fill="#9999FF"/>
<path d="M66.6459 58.8416C67.2627 63.952 71.5541 66.3884 76.3059 66.2845C78.9855 66.232 81.8491 65.8159 84.353 64.8027C84.5759 64.6202 84.6884 64.7341 84.6884 65.1469V71.683C84.7095 72.023 84.5673 72.3269 84.2859 72.5087C81.1738 73.9223 77.6016 74.3487 74.2263 74.2944C64.1627 74.2944 57.2516 67.2037 57.2545 56.8873C57.228 47.1109 63.5705 38.863 73.4213 38.863C81.7716 38.6466 87.5527 45.332 87.5759 53.6537C87.5759 55.1691 87.4913 56.6902 87.3077 58.1945C87.272 58.5045 87.008 58.7452 86.7038 58.7452C80.0348 58.7452 73.3334 58.8416 66.6459 58.8416ZM66.6459 52.5737C70.3627 52.5737 74.1009 52.7052 77.8152 52.5394C78.3734 52.4823 78.788 52.3762 78.788 51.7959C78.7105 48.7109 76.107 46.1734 73.0859 46.2916C69.4359 46.0652 67.0998 49.1466 66.6459 52.5737Z" fill="#9999FF"/>
</svg>
