<svg width="100" height="100" viewBox="0 0 100 100" fill="none" xmlns="http://www.w3.org/2000/svg">
<rect width="100" height="100" fill="black"/>
<rect x="10" width="80" height="100" rx="6.25" fill="black"/>
<path d="M34.375 65.625C34.375 61.3103 37.8728 57.8125 42.1875 57.8125H50V65.625C50 69.9397 46.5022 73.4375 42.1875 73.4375C37.8728 73.4375 34.375 69.9397 34.375 65.625Z" fill="#24CB71"/>
<path d="M50 26.5625V42.1875H57.8125C62.1272 42.1875 65.625 38.6897 65.625 34.375C65.625 30.0603 62.1272 26.5625 57.8125 26.5625H50Z" fill="#FF7237"/>
<path d="M57.7476 57.8125C62.0623 57.8125 65.5601 54.3147 65.5601 50C65.5601 45.6853 62.0623 42.1875 57.7476 42.1875C53.4328 42.1875 49.9351 45.6853 49.9351 50C49.9351 54.3147 53.4328 57.8125 57.7476 57.8125Z" fill="#00B6FF"/>
<path d="M34.375 34.375C34.375 38.6897 37.8728 42.1875 42.1875 42.1875H50V26.5625H42.1875C37.8728 26.5625 34.375 30.0603 34.375 34.375Z" fill="#FF3737"/>
<path d="M34.375 50C34.375 54.3147 37.8728 57.8125 42.1875 57.8125H50V42.1875H42.1875C37.8728 42.1875 34.375 45.6853 34.375 50Z" fill="#874FFF"/>
</svg>
